# xmcd
# 
# Track frame offsets:
#     150
#     16695
#     33296
#     49606
#     65115
#     85698
#     104577
#     118296
#     137885
#     151356
#     163547
# 
# Disc length: 2442
# 
# Revision: 4
# Processed by: cddbd v1.5.2PL0 Copyright (c) Steve Scherf et al.
# Submitted via: fre:ac v1.0.31
# 
DISCID=8d09880b
DTITLE=Emmylou Harris - The Traveling Kind
DYEAR=2015
DGENRE=Country
TTITLE0=The Traveling Kind
TTITLE1=No Memories Hanging Round
TTITLE2=Bring It On Home To Memphis
TTITLE3=You Can't Say We Didn't Try
TTITLE4=The Weight of the World
TTITLE5=Higher Mountains
TTITLE6=I Just Wanted To See You So Bad
TTITLE7=Just Pleasing You
TTITLE8=If You Lived Here You'd Be Home Now
TTITLE9=Her Hair Was Red
TTITLE10=Le Danse de La Joie
EXTD=
EXTT0=
EXTT1=
EXTT2=
EXTT3=
EXTT4=
EXTT5=
EXTT6=
EXTT7=
EXTT8=
EXTT9=
EXTT10=
PLAYORDER=
